<svg version="1.2" xmlns="http://www.w3.org/2000/svg" viewBox="0 0 222 73" width="222" height="73"><defs><clipPath clipPathUnits="userSpaceOnUse" id="cp1"><path d="m0 0h360v116h-360z"/></clipPath></defs><style>.a{fill:#fff}.b{fill:#dee6f1}.c{fill:#124e91}</style><g clip-path="url(#cp1)"><path class="a" d="m25.7 64.9h2.2l-2.9-4.6 2.9-4.2h-2.2l-2.2 3.5h-1.5v-3.5h-2v8.8h2v-3.6h1.4z"/><path class="a" d="m30.4 56.1l-0.2 3.5q0 1.2-0.1 2-0.1 0.8-0.4 1.2-0.3 0.4-0.8 0.4-0.2 0-0.4-0.1l-0.1 1.8q0.3 0 0.5 0.1 0.3 0 0.5 0 0.7 0 1.2-0.4 0.5-0.3 0.8-1 0.3-0.7 0.5-1.7 0.1-1 0.1-2.3l0.1-1.9h3v7.2h2v-8.8z"/><path class="a" d="m39.4 64.9v-8.8h2v5.7l4.2-5.7h1.9v8.8h-2v-5.7l-4.2 5.7z"/><path class="a" d="m59.7 64.9v-8.8h-1.7l-3.2 5.4-3.3-5.4h-1.6v8.8h1.8v-5.2l2.6 4.2h0.9l2.6-4.3v5.3z"/><path fill-rule="evenodd" class="a" d="m67.9 63h-4l-0.8 1.9h-2.1l3.9-8.8h2l3.9 8.8h-2.1zm-0.6-1.6l-1.4-3.3-1.4 3.3z"/><path class="a" d="m78.4 56.1h-7.6v1.6h2.8v7.2h2v-7.2h2.8z"/><path class="a" d="m86 56.1l-4.1 5.7v-5.7h-2v8.8h1.9l4.1-5.7v5.7h2v-8.8z"/><path class="a" d="m95.2 56.1v3.9q-0.4 0.2-0.8 0.3-0.5 0.1-1.1 0.1-0.9 0-1.4-0.4-0.4-0.5-0.4-1.4v-2.5h-2v2.7q0 1.6 0.9 2.5 0.9 0.8 2.7 0.8 0.5 0 1.1-0.1 0.5-0.1 1-0.3v3.2h2v-8.8z"/><path class="a" d="m101.5 63.2v-2h4.1v-1.6h-4.1v-1.9h4.6v-1.6h-6.6v8.8h6.8v-1.7z"/><path class="a" d="m113.5 63q-0.5 0.3-1.2 0.3-0.6 0-1.1-0.2-0.5-0.2-0.9-0.6-0.3-0.4-0.5-0.9-0.3-0.5-0.3-1.1 0-0.6 0.3-1.2 0.2-0.5 0.5-0.9 0.4-0.3 0.9-0.5 0.5-0.2 1.1-0.2 0.7 0 1.2 0.2 0.6 0.3 1 0.8l1.3-1.2q-0.6-0.8-1.5-1.2-0.9-0.4-2.1-0.4-1 0-1.8 0.4-0.9 0.3-1.5 0.9-0.7 0.6-1 1.5-0.4 0.8-0.4 1.8 0 1 0.4 1.8 0.3 0.8 1 1.4 0.6 0.7 1.5 1 0.8 0.3 1.8 0.3 1.2 0 2.1-0.4 0.9-0.4 1.5-1.2l-1.3-1.2q-0.4 0.6-1 0.8z"/><path class="a" d="m123 64.9h2.3l-3-4.6 2.9-4.2h-2.2l-2.2 3.5h-1.5v-3.5h-2v8.8h2v-3.6h1.4z"/><path class="a" d="m132.6 56.1l-4.2 5.7v-5.7h-2v8.8h1.9l4.2-5.7v5.7h2v-8.8z"/><path class="a" d="m138.8 63.2v-2h4.1v-1.6h-4.1v-1.9h4.6v-1.6h-6.6v8.8h6.8v-1.7z"/><path class="a" d="m153.2 65q-1 0-1.8-0.3-0.9-0.3-1.5-1-0.7-0.6-1-1.4-0.4-0.8-0.4-1.8 0-1 0.4-1.8 0.3-0.9 1-1.5 0.6-0.6 1.5-0.9 0.8-0.4 1.8-0.4 1.2 0 2.1 0.4 0.9 0.4 1.5 1.2l-1.3 1.2q-0.4-0.5-1-0.8-0.5-0.2-1.2-0.2-0.6 0-1.1 0.2-0.5 0.2-0.9 0.5-0.3 0.4-0.5 0.9-0.2 0.6-0.2 1.2 0 0.6 0.2 1.1 0.2 0.5 0.5 0.9 0.4 0.4 0.9 0.6 0.5 0.2 1.1 0.2 0.7 0 1.2-0.3 0.6-0.2 1-0.8l1.3 1.2q-0.6 0.8-1.5 1.2-0.9 0.4-2.1 0.4z"/><path class="a" d="m158.3 64.9v-8.8h2v5.7l4.2-5.7h1.9v8.8h-2v-5.7l-4.2 5.7z"/><path class="a" d="m172.9 65q-1 0-1.9-0.3-0.9-0.3-1.5-1-0.6-0.6-1-1.4-0.3-0.8-0.3-1.8 0-1 0.3-1.8 0.4-0.9 1-1.5 0.6-0.6 1.5-0.9 0.9-0.4 1.9-0.4 1.1 0 2 0.4 0.9 0.4 1.6 1.2l-1.3 1.2q-0.5-0.5-1-0.8-0.6-0.2-1.2-0.2-0.6 0-1.1 0.2-0.6 0.2-0.9 0.5-0.4 0.4-0.6 0.9-0.2 0.6-0.2 1.2 0 0.6 0.2 1.1 0.2 0.5 0.6 0.9 0.3 0.4 0.9 0.6 0.5 0.2 1.1 0.2 0.6 0 1.2-0.3 0.5-0.2 1-0.8l1.3 1.2q-0.7 0.8-1.6 1.2-0.9 0.4-2 0.4z"/><path class="a" d="m184.6 56.1h-7.6v1.6h2.8v7.2h2v-7.2h2.8z"/><path class="a" d="m188 63.2v-2h4.1v-1.6h-4.1v-1.9h4.6v-1.6h-6.6v8.8h6.8v-1.7z"/><path class="a" d="m204.4 64.9v-8.8h-1.7l-3.2 5.4-3.2-5.4h-1.7v8.8h1.9v-5.2l2.5 4.2h0.9l2.6-4.3v5.3z"/><path fill-rule="evenodd" class="a" d="m213.4 59.7q0.9 0.7 0.9 2.1 0 1.5-1 2.3-0.9 0.8-2.6 0.8h-3.9v-8.8h2v2.9h2.2q1.6 0 2.4 0.7zm-1.1 2.1q0-0.7-0.5-1-0.4-0.3-1.2-0.3h-1.8v2.9h1.8q0.8 0 1.2-0.4 0.5-0.4 0.5-1.2z"/><path class="a" d="m217.4 56.1h-2v8.8h2z"/><path class="a" d="m212.1 5h-24c-3.8 0-6.9 3.2-6.9 7h22.7c0.4 0 0.6 0.5 0.3 0.7l-20.9 19.1c-4.4 3.9-1.6 11.2 4.3 11.2h29.7c0-3.8-3.1-6.9-6.9-6.9h-17.6c-0.4 0-0.5-0.5-0.3-0.8l23.2-21c3.5-3.3 1.2-9.3-3.6-9.3z"/><path fill-rule="evenodd" class="a" d="m97.1 43h-8.2c-2.1 0-4-0.9-5.3-2.5l-9.8-11.9-2.4 0.2c-0.2 0-0.3 0.2-0.3 0.4v13.8h-7.8c-1 0-1.7-0.8-1.7-1.7v-34.5c0-1 0.7-1.8 1.7-1.8h17.5c4.8 0 8.4 1.2 10.9 3.4 1.9 1.8 2.9 4.1 2.9 6.7v2.2c0 2.6-1 4.9-2.9 6.6q-2.3 2.1-5.9 2.9l-1 0.3c-0.2 0.1-0.4 0.4-0.2 0.6zm-12.4-25.2q0 0 0 0 0.1-0.1 0.1-0.2 0.2-0.6 0.2-1.3 0-1-0.3-1.7c-0.5-1.2-1.8-2.5-5.2-2.5h-8c-0.2 0-0.4 0.1-0.4 0.4v9.7c0 0.2 0.2 0.4 0.5 0.4l10.9-2.7c1.4-0.6 1.9-1.2 2.2-2.1z"/><path class="a" d="m170.2 36h-15.4c-0.2 0-0.4-0.2-0.4-0.4v-8.3c0-0.2 0.2-0.4 0.4-0.4h12.8c0.9 0 1.7-0.8 1.7-1.7v-4c0-0.9-0.8-1.7-1.7-1.7h-12.8c-0.2 0-0.4-0.2-0.4-0.4v-6.7c0-0.2 0.2-0.4 0.4-0.4h15.5c3.8 0 6.9-3.1 6.9-7h-30.5c-1 0-1.7 0.8-1.7 1.8v34.5c0 0.9 0.7 1.7 1.7 1.7h30.5c0-3.9-3.2-7-7-7z"/><path fill-rule="evenodd" class="a" d="m55.2 32.4c0 3.5-1.4 6.1-4.2 7.9-2.8 1.8-6.6 2.7-11.3 2.7h-18c-0.9 0-1.7-0.8-1.7-1.7v-34.5c0-1 0.8-1.8 1.7-1.8h17.5c4.7 0 8.4 1.2 10.8 3.4 2 1.8 2.9 4.1 2.9 6.8q0 4.7-4 7.5c-0.3 0.1-0.3 0.6 0 0.7 6.3 2.7 6.3 7.4 6.3 9zm-25.7-10.3c0 0.2 0.2 0.4 0.4 0.4l10.5-2.5q2.9-0.9 2.9-3.9c0-1.3-0.5-4.1-5.4-4.1h-8c-0.3 0-0.4 0.2-0.4 0.4zm16.1 9.6q0-3.4-3.7-4.1l-12.1 1.2c-0.2 0-0.3 0.2-0.3 0.4v6.5c0 0.2 0.1 0.4 0.4 0.4h9.7c4 0 6-1.4 6-4.4z"/><path class="a" d="m106 15.9c0.4 0.1 1 0.3 2.3 0.3 2 0 4.9-0.5 8.5-1.3 0.9-0.2 5.5-1.3 6.5-1.5 8.4-2.2 14.7-2.4 14.7-2.4h0.5l-0.1-0.8c-0.4-2.2-1.9-4.2-4-5-1.1-0.5-2.3-0.7-3.8-0.7-2.1 0-4.8 0.4-8.2 1.3l-0.3 0.1c-1.4 0.3-5.1 1.2-5.9 1.5-7.6 2.1-15.3 2.4-15.3 2.4l0.2 0.7c0.4 2.6 2.3 4.7 4.9 5.4z"/><path class="a" d="m134.4 18.8c-1-0.4-2.3-0.6-3.8-0.6-2.1 0-4.8 0.4-8.2 1.2l-0.3 0.1c-1.4 0.4-5.1 1.3-5.9 1.5-7.6 2.1-15.3 2.4-15.3 2.4l0.2 0.7c0.4 2.6 2.3 4.8 4.9 5.4 0.4 0.1 1 0.3 2.3 0.3 2 0 4.9-0.4 8.5-1.2 0.9-0.2 5.5-1.3 6.5-1.6 8.4-2.1 14.7-2.3 14.7-2.3l0.5-0.1-0.1-0.7c-0.4-2.3-1.9-4.3-4-5.1z"/><path class="a" d="m134.4 32.5c-1.1-0.4-2.3-0.6-3.8-0.6-2.1 0-4.8 0.4-8.2 1.2l-0.4 0.2c-1.5 0.3-5 1.2-5.8 1.4-7.6 2.1-15.3 2.4-15.3 2.4l0.2 0.7c0.4 2.7 2.3 4.8 4.9 5.4v0.1c0.4 0 1 0.2 2.3 0.2 2 0 4.9-0.4 8.5-1.2 0.9-0.2 5.5-1.3 6.4-1.6 8.5-2.1 14.8-2.3 14.8-2.3l0.5-0.1-0.1-0.7c-0.4-2.3-1.9-4.2-4-5.1z"/><path class="b" d="m238.3 63.2c-5.8-15.5 2-32.8 17.6-38.6l29.9-11.3c15.5-5.8 32.8 2 38.6 17.6l11.3 29.9c5.8 15.5-2 32.8-17.6 38.6l-29.9 11.3c-15.5 5.8-32.8-2-38.6-17.6z"/><path fill-rule="evenodd" class="c" d="m273.7 51q1.6 0.5 2.5 1.7 0.9 1.1 0.9 2.8 0 2.4-1.9 3.7-1.9 1.3-5.6 1.3h-9.6v-18.2h9.1q3.4 0 5.2 1.3 1.9 1.3 1.9 3.4 0 1.4-0.7 2.4-0.6 1-1.8 1.6zm-9.4-5.5v4.3h4.3q1.6 0 2.4-0.6 0.8-0.5 0.8-1.6 0-1.1-0.8-1.6-0.8-0.5-2.4-0.5zm5 11.8q1.7 0 2.6-0.5 0.8-0.6 0.8-1.7 0-2.3-3.4-2.3h-5v4.5zm23.8-0.2v3.4h-14.1v-2.7l7.2-6.7q1.1-1 1.5-1.8 0.4-0.8 0.4-1.5 0-1.1-0.8-1.7-0.7-0.6-2.2-0.6-1.2 0-2.2 0.5-1 0.4-1.6 1.3l-3.2-1.9q1.1-1.6 3-2.5 2-0.9 4.4-0.9 2.1 0 3.7 0.7 1.5 0.6 2.4 1.8 0.9 1.2 0.9 2.9 0 1.5-0.7 2.8-0.6 1.2-2.5 2.9l-4.2 4zm16.6-6.1q1.6 0.5 2.5 1.7 0.9 1.1 0.9 2.8 0 2.4-1.9 3.7-1.9 1.3-5.6 1.3h-9.6v-18.2h9.1q3.4 0 5.2 1.3 1.9 1.3 1.9 3.4 0 1.4-0.7 2.4-0.6 1-1.8 1.6zm-9.4-5.5v4.3h4.3q1.6 0 2.4-0.6 0.8-0.5 0.8-1.6 0-1.1-0.8-1.6-0.8-0.5-2.4-0.5zm5 11.8q1.7 0 2.6-0.5 0.8-0.6 0.8-1.7 0-2.3-3.4-2.3h-5v4.5z"/><path class="c" d="m257 79.6v-8.9h8.5v8.9h-2.1v-7.6l0.5 0.4h-5.3l0.5-0.4v7.6z"/><path fill-rule="evenodd" class="c" d="m272.3 79.7q-1.4 0-2.5-0.6-1-0.6-1.7-1.6-0.6-1-0.6-2.4 0-1.3 0.6-2.3 0.7-1.1 1.7-1.6 1.1-0.6 2.4-0.6 1.4 0 2.5 0.6 1.1 0.5 1.7 1.6 0.6 1 0.6 2.3 0 1.4-0.6 2.4-0.6 1-1.7 1.6-1.1 0.6-2.5 0.6zm0-1.8q0.8 0 1.4-0.3 0.6-0.3 0.9-1 0.4-0.6 0.4-1.5 0-0.8-0.4-1.5-0.3-0.6-0.9-0.9-0.6-0.4-1.3-0.4-0.8 0-1.4 0.4-0.6 0.3-0.9 0.9-0.4 0.7-0.4 1.5 0 0.9 0.4 1.5 0.3 0.7 0.9 1 0.6 0.3 1.3 0.3z"/><path fill-rule="evenodd" class="c" d="m283.9 79.7q-1 0-1.9-0.5-0.5-0.3-0.9-0.7v4.3h-2.1v-12.1h2v1.1q0.4-0.4 0.9-0.7 0.9-0.5 2-0.5 1.4 0 2.4 0.5 1 0.6 1.5 1.6 0.6 1 0.6 2.4 0 1.4-0.6 2.5-0.5 1-1.5 1.5-1 0.6-2.4 0.6zm-0.2-1.8q0.8 0 1.3-0.3 0.6-0.3 1-1 0.3-0.6 0.3-1.5 0-0.8-0.3-1.5-0.4-0.6-1-0.9-0.5-0.4-1.3-0.4-0.7 0-1.3 0.4-0.6 0.3-1 0.9-0.3 0.7-0.3 1.5 0 0.9 0.3 1.5 0.4 0.7 1 1 0.6 0.3 1.3 0.3z"/><path class="c" d="m292 79.6v-7.7l0.5 0.5h-3.6v-1.7h8.3v1.7h-3.6l0.5-0.5v7.7z"/><path class="c" d="m304.1 79.6v-1.8l-0.1-0.4v-3.2q0-0.9-0.6-1.4-0.5-0.5-1.6-0.5-0.8 0-1.5 0.2-0.7 0.3-1.2 0.7l-0.8-1.5q0.7-0.6 1.7-0.8 1-0.3 2-0.3 1.9 0 3 0.9 1 0.9 1 2.9v5.2zm-2.7 0.1q-1 0-1.8-0.3-0.7-0.4-1.1-1-0.4-0.6-0.4-1.4 0-0.7 0.3-1.3 0.4-0.6 1.2-1 0.8-0.3 2.1-0.3h2.6v1.4h-2.4q-1.1 0-1.4 0.3-0.4 0.4-0.4 0.9 0 0.5 0.4 0.9 0.5 0.3 1.3 0.3 0.8 0 1.4-0.4 0.6-0.3 0.8-1l0.4 1.3q-0.3 0.7-1.1 1.2-0.8 0.4-1.9 0.4z"/><path class="c" d="m307.3 79.6l0.1-1.8q0.1 0 0.2 0.1 0.1 0 0.2 0 0.5 0 0.8-0.3 0.3-0.4 0.4-0.9 0.2-0.5 0.2-1.2 0.1-0.7 0.1-1.4l0.2-3.4h7.1v8.9h-2v-7.7l0.5 0.5h-4.3l0.5-0.5-0.1 2.3q-0.1 1.2-0.2 2.2-0.2 1-0.5 1.8-0.2 0.7-0.8 1.1-0.5 0.5-1.2 0.5-0.3 0-0.6-0.1-0.3 0-0.6-0.1z"/></g></svg>